<svg xmlns="http://www.w3.org/2000/svg" version="1.1" xmlns:xlink="http://www.w3.org/1999/xlink" xmlns:svgjs="http://svgjs.dev/svgjs" width="1440" height="3440" preserveAspectRatio="none" viewBox="0 0 1440 3440"><g mask="url(&quot;#SvgjsMask1164&quot;)" fill="none"><rect width="1440" height="3440" x="0" y="0" fill="rgba(255, 255, 255, 1)"></rect><path d="M0 18.95C63.32 18.95 97.85 210.02 231.43 360C277.85 412.13 297.79 423.16 360 423.16C409.45 423.16 451.64 410.16 454.74 360C464.73 198.58 316.77 94.2 386.18 0C449.4 -85.8 553.09 0 720 0C900 0 900 0 1080 0C1225.72 0 1249.33 -40.7 1371.43 0C1429.33 19.3 1427.47 54.22 1440 120C1461.76 234.22 1440 240 1440 360C1440 540 1440 540 1440 720C1440 900 1440 900 1440 1080C1440 1207.74 1514.49 1274.96 1440 1335.48C1334.49 1421.21 1241.13 1328.98 1080 1372.5C1047.63 1381.24 1080.42 1417.37 1053 1440C900.42 1565.95 873.38 1541.23 720 1669.66C658.42 1721.23 660.25 1728.28 623.08 1800C533.19 1973.45 436.79 2033.41 465.88 2160C485.25 2244.27 598.29 2221.71 720 2221.71C772.3 2221.71 769.16 2193.9 813.91 2160C949.16 2057.53 928.51 1990.45 1080 1948.97C1241.55 1904.73 1317.83 1916.95 1440 1988.57C1497.83 2022.47 1440 2074.28 1440 2160C1440 2340 1440 2340 1440 2520C1440 2700 1440 2700 1440 2880C1440 3060 1440 3060 1440 3240C1440 3420 1530 3510 1440 3600C1350 3690 1260 3600 1080 3600C900 3600 900 3600 720 3600C549.82 3600 541.11 3615.14 379.64 3600C361.11 3598.26 375.09 3566.25 360 3566.25C329.27 3566.25 326.95 3596.35 288 3600C146.95 3613.22 88.62 3655.38 0 3600C-55.38 3565.38 -24.41 3503.38 0 3420C28.28 3323.38 105.37 3316.23 105.37 3240C105.37 3195.37 15.3 3230.57 0 3178.29C-37.38 3050.57 0 3029.15 0 2880C0 2726.47 -23.8 2715.73 0 2572.94C6.2 2535.73 36.59 2552.22 60 2520C186.59 2345.75 315.38 2324.39 300 2160C285.38 2003.76 125.89 2029.82 0 1878.75C-24.11 1849.82 0 1839.38 0 1800C0 1620 0 1620 0 1440C0 1260 0 1260 0 1080C0 900 0 900 0 720C0 540 0 540 0 360C0 189.48 -52.4 18.95 0 18.95" stroke="rgba(0, 205, 255, 0.51)" stroke-width="2"></path><path d="M1080 590.4C1058.72 590.4 1040.49 654.87 1040.49 720C1040.49 793.3 1058.68 867.27 1080 867.27C1101.58 867.27 1126.29 793.19 1126.29 720C1126.29 654.75 1101.62 590.4 1080 590.4" stroke="rgba(0, 125, 255, 0.37)" stroke-width="2"></path><path d="M360 997.38C276.29 997.38 173.33 1042.59 173.33 1080C173.33 1116.21 273.54 1144.62 360 1144.62C401.39 1144.62 429.04 1114.42 429.04 1080C429.04 1040.8 404.15 997.38 360 997.38" stroke="rgba(0, 205, 255, 0.51)" stroke-width="2"></path><path d="M720 2771.57C673.88 2771.57 627.22 2822.89 627.22 2880C627.22 2947.42 673.94 3020.63 720 3020.63C765.78 3020.63 810.91 2947.5 810.91 2880C810.91 2822.97 765.73 2771.57 720 2771.57" stroke="rgba(0, 205, 255, 0.51)" stroke-width="2"></path><path d="M691.58 360C738.33 216.88 539.95 125.01 549.82 0C554.16 -54.99 634.91 0 720 0C900 0 900 0 1080 0C1118.57 0 1157.14 -25.43 1157.14 0C1157.14 64.57 1145.33 112.25 1080 180C971.76 292.25 844.39 235.58 810 360C769.76 505.58 885.79 536.26 930.73 720C973.84 896.26 1010.79 906.88 986.09 1080C959.43 1266.88 927.76 1277.11 828 1440C794.71 1494.35 763.14 1465.99 720 1514.48C602.99 1645.99 610.65 1654.99 507.69 1800C430.65 1908.52 445.91 2021.54 360 2021.54C256.87 2021.54 211.53 1932.35 129.6 1800C31.53 1641.58 -56.14 1571.58 0 1440C59.06 1301.58 193.08 1368.8 360 1260C469.25 1188.8 552.33 1175.89 552.33 1080C552.33 970.81 484.45 887.28 360 849.84C208.29 804.2 117.63 956.28 0 913.85C-62.37 891.36 0 816.92 0 720C0 600 -70.37 507.16 0 480C109.63 437.69 192.61 610.09 360 581.05C538.4 550.09 643.42 507.41 691.58 360" stroke="rgba(0, 125, 255, 0.37)" stroke-width="2"></path><path d="M1254.86 720C1254.86 573.08 1389.72 432 1440 432C1482.29 432 1440 576 1440 720C1440 886.15 1483.16 1052.31 1440 1052.31C1390.59 1052.31 1254.86 883.24 1254.86 720" stroke="rgba(0, 125, 255, 0.37)" stroke-width="2"></path><path d="M1009.57 2160C1046.65 2134.65 1038.63 2104.14 1080 2104.14C1189.56 2104.14 1256.58 2077.62 1311.43 2160C1395.04 2285.55 1310.61 2349.37 1356.92 2520C1374.89 2586.21 1424.89 2568.21 1440 2633.68C1466.43 2748.21 1440 2756.84 1440 2880C1440 3060 1440 3060 1440 3240C1440 3420 1440 3420 1440 3600C1440 3600 1440 3600 1440 3600C1260 3600 1260 3600 1080 3600C900 3600 900 3600 720 3600C631.63 3600 602.05 3651.44 543.27 3600C422.05 3493.94 454.41 3440.62 360 3285C345.21 3260.62 348.58 3255.49 324.88 3240C168.58 3137.84 111.97 3173.78 0 3049.71C-50.47 2993.78 0 2964.85 0 2880C0 2792.65 -40.34 2774.44 0 2705.29C64.66 2594.44 114.9 2621.78 210 2520C294.9 2429.14 255.71 2354.7 360 2320C510.71 2269.85 554.22 2391.12 720 2350.29C879 2311.12 866.65 2257.72 1009.57 2160" stroke="rgba(0, 125, 255, 0.37)" stroke-width="2"></path><path d="M720 2663.13C627.76 2663.13 534.43 2765.78 534.43 2880C534.43 3014.84 627.87 3161.25 720 3161.25C811.57 3161.25 901.82 3014.99 901.82 2880C901.82 2765.93 811.46 2663.13 720 2663.13" stroke="rgba(0, 205, 255, 0.51)" stroke-width="2"></path><path d="M720 15.65C714.57 15.65 713.45 5.65 713.45 0C713.45 -2.18 716.72 0 720 0C730.59 0 741.18 -3.49 741.18 0C741.18 4.34 728.43 15.65 720 15.65" stroke="rgba(0, 205, 255, 0.51)" stroke-width="2"></path><path d="M401.54 720C411.49 598.04 586.48 536 720 536C796.2 536 808.04 620.05 820.98 720C843.25 892.05 825.21 905.3 790.43 1080C774.72 1158.94 749.56 1227.27 720 1227.27C692.15 1227.27 716.02 1144.35 675.62 1080C556.79 890.71 389.3 870.04 401.54 720" stroke="rgba(0, 205, 255, 0.51)" stroke-width="2"></path><path d="M1383.43 720C1383.43 675.11 1424.64 632 1440 632C1452.92 632 1440 676 1440 720C1440 770.77 1453.19 821.54 1440 821.54C1424.9 821.54 1383.43 769.88 1383.43 720" stroke="rgba(0, 205, 255, 0.51)" stroke-width="2"></path><path d="M230.77 1440C237.87 1380.2 293.28 1375.38 360 1375.38C451.23 1375.38 541.25 1368.82 546.67 1440C557.41 1581.13 473.56 1622.21 392.31 1800C380.23 1826.44 378.79 1848.46 360 1848.46C337.44 1848.46 319.9 1832.57 309.6 1800C255.29 1628.34 212.67 1592.51 230.77 1440" stroke="rgba(0, 205, 255, 0.51)" stroke-width="2"></path><path d="M360 2520C360 2501.02 545.18 2521.16 720 2478.86C905.18 2434.06 928.26 2332.35 1080 2345.81C1160.18 2352.92 1126.54 2436.47 1183.85 2520C1306.54 2698.83 1314.66 2694.37 1440 2870.53C1442.73 2874.37 1440 2875.27 1440 2880C1440 2898 1453.1 2904.35 1440 2916C1273.1 3064.35 1209.77 3210.44 1080 3200C986.13 3192.44 1071.68 3021.52 992.73 2880C891.68 2698.87 890.82 2651.89 720 2554.7C574.46 2471.89 360 2538.94 360 2520" stroke="rgba(0, 205, 255, 0.51)" stroke-width="2"></path><path d="M0 2837.65C165.41 2672.24 235.16 2508.03 360 2520C455.99 2529.2 441.65 2703.98 441.65 2880C441.65 2976.07 435.55 3057.15 360 3064.19C214.73 3077.72 162.72 3004.39 0 2921.14C-17.28 2912.3 0 2900.57 0 2880C0 2858.82 -14.59 2852.24 0 2837.65" stroke="rgba(0, 205, 255, 0.51)" stroke-width="2"></path><path d="M706.91 3600C706.91 3577.49 698.85 3562.58 720 3544.62C885.39 3404.18 933.72 3267.87 1080 3283.2C1197.98 3295.56 1248.51 3492.22 1248.51 3600C1248.51 3650.62 1164.26 3600 1080 3600C900 3600 900 3600 720 3600C713.45 3600 706.91 3605.18 706.91 3600" stroke="rgba(0, 125, 255, 0.37)" stroke-width="2"></path></g><defs><mask id="SvgjsMask1164"><rect width="1440" height="3440" fill="#ffffff"></rect></mask></defs></svg>