<svg xmlns="http://www.w3.org/2000/svg" version="1.1" xmlnsXlink="http://www.w3.org/1999/xlink" xmlnsSvgjs="http://svgjs.dev/svgjs" viewBox="0 0 1422 800"><defs><linearGradient x1="50%" y1="0%" x2="50%" y2="100%" id="ssscribble-grad"><stop stop-color="hsl(206, 75%, 49%)" stop-opacity="1" offset="0%"></stop><stop stop-color="hsl(331, 90%, 56%)" stop-opacity="1" offset="100%"></stop></linearGradient></defs><g fill="none" stroke-width="1.25" stroke="url(#ssscribble-grad)" stroke-linecap="round"><path d="M1619.68 262.52C1676.99 291.24 1701.63 317.75 1688.95 342.28 1643.13 367.09 1573.35 390.48 1494.6 413.09 1422.37 436.86 1369.72 461 1344.63 486.52 1350.42 514.61 1382.04 545.62 1430.39 580.61 1487.01 619.46 1537.52 663.33 1572.12 712.53 1586.3 765.09 1575 821.91 1540.07 881.56 1485.78 940.33 1418.55 997.64 1346.3 1050.22 1274.85 1094.35 1211.47 1128.01 1160.21 1148.18 1122.98 1154.61 1100.5 1146.01 1090.86 1123.26 1093.47 1092.21 1103.46 1054.72 1116.97 1016.73 1141.76 978.8 1168.32 1013.88 1163.29 1094.91 1153.59 1165.43 1137.77 1238.01 1117 1302.29 1093.25 1348.97 1066.23 1370.53 1037.23 1362.89 1006.83 1329.17 975.81 1273.85 945.08 1207.18 914.01 1144.36 883.91 1095.8 855.19 1072.04 826.47 1079.94 799.81 1115.9 774.95 1171.68 749.74 1237.99 725.63 1299.55 701.87 1344.67 676.71 1366.94 650.53 1360.37 622.18 1326.51 590.84 1271.09 555.66 1201.96 515.58 1129.28 471.44 1062.17 421.71 1008.73 366.55 973.8 308.94 960.04 248.17 965.59 186.61 986.26 128.84 1019.21 76.1 1055.81 32.4 1089.81 -7.52 1127.58 10.97 1118.44 62.28 1071.06 100.61 1025.62 135.87 973.26 160.25 917.28 165.29 858.47 148.75 800.65 108.95 745.69 48.74 692.77 -25.16 644.46 -102.83 600.9 -172.23 560.65 -222.55 524.63 -244.55 492.01 -235.66 461.89 -196.73 433.83 -135.58 406.92 -67.91 381.22 -6.58 355.51 33.54 329.17 40.54 303.14 13 275.88 -44.31 247.16 -119.43 218.44 -192.64 188.95 -247.22 159.04 -273.02 129.44 -262.68 100.03 -219.15 71.57 -151.8 44.31 -73.42 19.17 1.28 -2.8 76.47 -29.78 57.79 -53.13 -11.25 -47.47 -81.44 -33.64 -113.68 3.44 -62.09 12.6 -5.37 7.06 61.08 -8.7 130.74 -36.85 199.58 -78 261.55 -131.17 313.67 -194.19 354.97 -262.1 384.46 -330.68 403.56 -393.53 413.77 -460.8 404.6 -465.03 398.3 -403.96 394.51 -352.33 394.97 -301.89 400.17 -262.67 406.56 -245.01 417.72 -252.16 433.29 -285.5 449.83 -341.7 470.07 -411.71 493.48 -483.7 517.19 -545.16 543.51 -584.04 572.23 -591.96 600.95 -568.2 631.39 -516.74 663.61 -448.24 696.14 -375.89 731.02 -312.11 768.64 -267.3 807.23 -248.57 849.27 -256.41 894.98 -286.88 941.89 -334.96 992.43 -388.83 1046 -438.31 1099.2 -477.08 1153.45 -496.1 1206.68 -492.52 1255.26 -467.34 1298.68 -422.31 1333.92 -363.08 1359.08 -295.18 1372.35 -225.72 1372.14 -160.76 1361.12 -104.09 1338.58 -59.65 1307.38 -28.44 1260.05 -8.07 1220.23 -27 1257.07 -48.79 1308.53 -64.18 1375.82 -75.22 1451.89 -80.62 1526.5 -82.66 1590.02 -78 1632.33 -67.09 1647.53 -52.31 1632.7 -32.31 1590.49 -8.3 1531.99 18.28 1467.32 47.34 1411.05 77.73 1378.6 109.28 1376.7 141.01 1408.16 172.14 1468.42 203.55 1544.53 233.79 1619.66 262.51Q1619.68 262.52 1619.68 262.52" opacity="0.98"></path><path d="M1555.68 255.2C1609.56 281.71 1636.02 309.42 1630.76 338.36 1596.15 367.54 1537.88 398.41 1466.9 431.26 1395.3 464.89 1334.44 501.15 1292.96 540.31 1276.3 580.68 1284.2 624.25 1312.49 670.87 1356.66 718.14 1406.01 767.63 1451.64 818.26 1488.48 867.11 1508.25 914.58 1508.32 958.57 1489.34 996.57 1452.06 1027.55 1400.84 1049.3 1339.67 1061.49 1274.39 1062.57 1210.17 1052.21 1149.73 1033.86 1097.43 1007.25 1054.87 975.41 1011.27 931.47 980.79 898.49 982.99 930.29 989.12 973.76 994.54 1030.63 997.73 1096.01 1001.24 1162.87 1000.92 1223.99 996.36 1271.51 990.9 1299.76 981.13 1304.44 967.33 1284.41 952.77 1244.5 934.73 1189.17 913.59 1127.31 892.21 1071.35 868.19 1028.92 841.68 1008.04 815.17 1014.21 786.8 1044.53 756.54 1092.89 726.05 1152.68 693.21 1211.69 657.78 1260.22 621.58 1292.5 582.24 1301.63 539.61 1286.64 496.06 1250.28 449.3 1196.54 399.85 1132.53 350.72 1065.36 300.5 1002.47 250.85 949.82 204.96 911.53 163.01 889.64 127.54 883.62 100.47 893.08 83.32 913.29 77.83 939.74 82.46 970.79 98.36 999.64 124.06 1022.7 153.53 1039.92 185.72 1046.92 215.59 1043.29 235.51 1030.45 243.27 1007.73 234.65 976.92 206.98 939.28 161.52 896.69 101.03 851.28 31.76 802.98 -39.19 754.56 -102.79 707.37 -150.51 659.99 -175.67 615.06 -173.97 573 -147.45 531.7 -99.25 493.32 -37.88 457.75 22.85 422.8 73.33 390.23 102.69 359.86 102.71 329.68 73.56 301.33 19.68 274.82 -49.4 248.31 -117.88 224.27 -172.32 202.81 -204.27 181.55 -206.1 163.24 -178.14 148.19 -125.99 133.76 -57.96 123.04 14.65 116.24 81.19 110.2 132.42 108.05 162.72 109.49 169.17 110.73 154.26 114.35 123.26 119.13 80.47 121.01 35.99 121.34 -2.76 118.13 -32.39 108.08 -46.06 91.35 -42.22 66.27 -21.93 31.97 14.1 -11.42 62.14 -63.39 119.29 -121.2 180.7 -183.13 242.25 -245.49 302.41 -303.24 357.13 -352.97 404.91 -390.03 445.97 -411.62 479.28 -415.42 505.74 -400.79 525.77 -371.79 541.01 -330.5 553.19 -282.76 565.4 -219.94 588.97 -191.15 605.38 -244.55 616.92 -303.3 631.91 -370.12 650.64 -435.15 669.33 -488.76 691.86 -521.78 718.37 -527.96 744.88 -507.08 774.74 -461.97 807.68 -400.77 840.59 -333.66 876.48 -270.53 914.94 -220.38 953.02 -190.12 993.12 -182.13 1034.37 -195.42 1074.09 -227.98 1113.49 -271.83 1151.07 -319.26 1184.83 -365.21 1214.39 -400.49 1237.89 -420.3 1254.96 -423.51 1263.91 -407.73 1263.71 -374.93 1256.79 -328.19 1241.54 -271.48 1219.3 -209.83 1195.69 -146.69 1170.67 -86.99 1148.27 -33.89 1134.97 11.2 1132.01 46.52 1143.02 72.26 1170.48 88.44 1213.66 96.92 1270.89 99.78 1337.26 96.65 1407.43 91.43 1473.86 86.11 1546.77 76.66 1550.17 74.06 1481.62 83.55 1423.95 92.48 1368.58 105.34 1326.66 121.7 1308.92 138.84 1318.54 158.85 1355.73 181.31 1415.4 204 1486.56 228.68 1555.66 255.19Q1555.68 255.2 1555.68 255.2" opacity="0.76"></path><path d="M1491.68 381C1541.94 405.3 1569.54 432.4 1570.66 462.09 1546.48 491.8 1500.07 524.11 1439.03 558.79 1372.27 593.38 1308.88 630.11 1256.92 668.51 1222.4 706.22 1207.99 744.81 1213.23 783.32 1236.93 819.72 1272.68 854.46 1314.08 886.16 1357.29 913.55 1393.92 935.87 1419.32 951.72 1432.29 961.4 1429.27 963.41 1410.9 957.3 1379.03 945.7 1335.74 927.41 1284.71 903.9 1228.18 880.02 1170.4 855.74 1114.44 834.29 1061.1 820.83 1013.4 816.09 972.16 822.79 936.99 843.18 908.43 876.64 885.56 922.28 868.11 977.25 854.53 1037.82 843.38 1098.85 835.44 1154.49 827.98 1199.48 819.84 1228.61 813.06 1239.38 804.37 1229.77 793.14 1200.59 782.28 1157.35 768.36 1103.98 751.1 1047.83 733.89 998.78 713.2 962.2 688.9 944.04 664.6 948.65 637.26 973.73 607.14 1014.85 577.07 1067.53 544.35 1122.29 509.38 1171.4 474.78 1210.14 438.45 1231.58 401.14 1233.32 365.19 1216.16 329.5 1180.99 295.32 1132.06 264.37 1074.19 236.88 1012.93 214.43 953.81 197.4 900.96 187.22 858.27 184.94 827.64 188.72 810.28 200.25 805.18 218.83 810.36 240.01 825.28 264.42 845.37 289.11 867.45 314.77 901.79 302.07 941.68 251.79 940.79 201.08 932.01 140.91 916.41 76.02 895.12 12.94 869.27 -42.6 839.5 -84.11 807.17 -107.16 772.27 -108.58 736.46 -87.77 700.77 -49.52 664.03 2.25 628.39 59.63 594.48 111.3 560.29 150.56 528.21 169.92 498.6 164 468.96 133.94 441.87 83.68 417.57 20.6 393.27 -42.78 372.33 -95.95 354.64 -132.2 336.92 -144.18 322.35 -130.61 310.71 -94.42 298.8 -40.17 289.42 24.2 282.07 90.58 273.67 150.79 266.33 198.35 259.11 228.77 249.32 240.53 238.03 234.86 223.99 213 205.38 181.05 182.25 144.62 153.58 106.45 119.18 74.02 78.68 51.11 32.25 38.25 -18.18 38.95 -72.33 52.79 -128.13 78.25 -182.05 114.18 -232.49 157.77 -276.1 207.55 -309.97 260.16 -331.94 313.04 -339.88 366.11 -334.56 416.24 -315.42 462.4 -284.25 505.63 -246.8 544.21 -205.35 578.44 -165.29 609.44 -134.16 636.97 -114.82 661.89 -111.36 684.65 -126.82 706.07 -159.85 726.97 -207.96 746.88 -266.45 767.24 -328.36 788.61 -385.85 809.73 -431.78 832.34 -459.33 856.64 -463.96 880.94 -445.8 906.35 -406.76 932.57 -352.91 958.53 -291.95 984.81 -231.43 1010.73 -178.81 1035.66 -140.24 1059.26 -119.03 1080.59 -116.08 1099.76 -131.49 1115.39 -160.65 1126.5 -198.48 1134.39 -241.7 1136.88 -282.47 1133.55 -315.76 1127.29 -339.73 1115.9 -349.65 1100.28 -344.73 1084.86 -326.14 1068.41 -294.34 1053.4 -252.18 1044.58 -202.03 1042.01 -147.43 1048.4 -91.7 1066.41 -36.34 1096.04 15.32 1137.58 61.68 1189.18 102.56 1248.67 136.73 1312.15 164.49 1373.88 186.1 1429.38 202.51 1472.92 215.03 1500.27 223.23 1508.31 229.55 1495.71 235.26 1465.97 238.86 1421.59 243.44 1368.92 249.81 1296.92 259.64 1254.15 293.33 1304.76 318.12 1362.73 335.76 1428.57 356.69 1491.66 380.99Q1491.68 381 1491.68 381" opacity="0.44"></path><path d="M1427.68 524.27C1474.15 546.36 1502.19 569.96 1508.59 594.82 1493.83 619.53 1459.09 645.19 1409.32 671.34 1350.75 696.86 1290.04 722.22 1233.91 746.72 1187.87 769.73 1155.87 790.9 1139.7 809.36 1140.33 825.25 1155.16 837.37 1180.7 844.94 1214.97 849.2 1251.53 848.37 1285.91 842.25 1327.49 826.77 1344.29 777.82 1316.73 752.67 1285.63 741.37 1247.01 735.04 1203.33 735.79 1155.5 746.14 1106.46 765.98 1058.11 795.87 1010.18 835.25 965.19 882.67 923.84 935.83 885.05 991.14 850.24 1045.34 819.14 1094.17 790.68 1133.73 765.16 1160.62 741.87 1171.99 720.36 1167.72 700.06 1147.21 680.29 1112.29 661.36 1068.41 642.16 1018.69 622.26 968.91 602.57 926.71 581.76 895.66 559.67 880.04 537.57 883.29 514.73 903.55 491.39 937.71 468.26 982.95 445.06 1032.11 422.33 1079.28 400.43 1120.97 379.81 1150.81 361.24 1165.88 344.44 1165.91 330.73 1149.69 320.9 1119.12 313.72 1077.05 311.19 1026.74 313.71 972.33 318.79 917.16 328.56 865.15 342.45 819.2 356.75 781.09 372.91 752.29 389.13 732.95 405.34 722.64 396.45 745.08 361.58 767.07 324.56 783.65 278.23 798.06 224.51 809.14 167.13 818.57 109.16 823.34 55.19 823.35 -6.46 816.86 -30.91 779.29 11.46 751.3 55.12 730.31 105.28 707.86 155.33 684.64 196.57 660.72 224.81 636.72 235.2 613.1 224.43 589.31 194.15 566.25 147.68 544.16 90.59 522.07 32.6 501.47 -18.27 482.23 -56.98 462.81 -76.86 444.42 -75.86 426.67 -55.13 408.23 -16.44 389.76 35.24 370.67 94.31 350.05 154.55 327.88 210.09 303.48 256.36 276.65 289.86 246.72 309.12 213.23 313.29 176.95 304.55 136.97 285.81 93.49 258.35 48.37 227.76 1.07 197.81 -47.11 169.23 -93.65 147.13 -138.09 133.27 -178.32 126.9 -212.13 130.33 -238.23 142.92 -254.74 163.34 -261.49 191.12 -257.3 224.44 -242.19 262.64 -219.24 303.63 -188.65 345.75 -153.18 389.54 -118.48 432.51 -86.16 473.72 -60.29 514.72 -45.91 553.23 -44.07 589.02 -56.56 624.05 -84.09 656.48 -124.48 686.43 -174.68 715.84 -230.38 743.18 -286.04 768.62 -335.66 793.9 -374.19 817.59 -396.7 839.68 -399.96 861.77 -384.34 881.74 -351.05 899.5 -304.49 917.09 -250.34 932.15 -194.12 944.4 -141.71 967.34 -69.17 966.22 -135.96 955.89 -189.66 945.27 -253.08 989.59 -209.63 1038.36 -152.42 1081.18 -107.07 1130.85 -59.22 1185.51 -10.92 1241.55 37.53 1296.74 83.69 1347.2 126.58 1388.95 166.75 1419.1 202.8 1434.63 234.81 1435.08 263.51 1419.6 288.73 1389.52 311.12 1350.18 330.94 1304.32 349.01 1257.72 366.08 1204.41 389.45 1198.84 437.25 1255.09 463.94 1310.34 482.11 1370.57 502.16 1427.66 524.26Q1427.68 524.27 1427.68 524.27" opacity="0.86"></path><path d="M1363.68 553.27C1406.18 573.15 1434 592.01 1444.55 609.71 1437.97 627.27 1414.2 643.41 1376.23 657.84 1328.15 671.76 1274.39 683.53 1220.02 692.78 1169.47 701.11 1126.7 706.49 1094.45 708.7 1071.05 708.74 1098.31 692.33 1136.71 677.97 1167.23 668.93 1196.37 659.67 1221.59 651.41 1249.99 646.43 1257.23 667.5 1235.9 699.11 1212.98 729.69 1184.56 766.94 1152.16 810.01 1116.11 856.94 1078.24 906.24 1039.83 955.39 1000.2 1001.37 961.49 1041.84 924.39 1073.88 887.45 1095.61 852.67 1105.1 820.25 1101.25 788.39 1085.49 758.8 1057.86 731.44 1020.52 704.48 978.4 679.43 933.68 656.2 890.69 633.1 855.17 611.59 829.28 591.71 816.04 571.83 818.1 554.04 834 538.42 861.59 522.91 899.31 509.81 941.89 499.27 985.04 489.14 1026.43 481.89 1060.65 477.68 1084.85 473.77 1098.7 481.18 1046.63 490.72 988.73 496.48 942.28 502.66 893.38 508.07 844.72 509.83 797.93 508.65 755.41 503.12 718.48 491.34 687.74 473.36 663.8 448.37 646.37 416.35 635.59 377.52 630.18 332.65 628.95 283.95 632.32 232.67 637.82 181.45 644.17 133.71 652.56 91.73 660.06 58.68 665.85 32.25 673.49 65.57 673.73 119.82 665.82 162.96 658.83 207.23 649.13 247.63 636.97 277.93 624.37 295.85 609.68 298.5 593.11 284.02 576.42 254.18 558.09 211.68 538.2 160.56 518.32 108.2 497.36 60.54 475.33 21.14 453.17 -4.3 429.7 -13.5 404.8 -6.65 379.47 16.38 352.34 52.93 323.26 99.49 293.45 152.1 261.43 206.23 227.2 258.15 192.31 304.05 155.37 341.31 116.76 368.16 78.32 384 39.12 389.37 0.09 384.28 -36.9 371.48 -71.99 353.36 -103.81 330.22 -131.03 306.3 -152.92 283.85 -168.2 253.97 -177.27 227.47 -146.81 233.15 -110.54 243.77 -82.58 259.67 -52.94 279.82 -24.23 303.49 -0.84 329.95 16.5 358.13 25.34 388.26 22.94 418.86 9.45 449.13 -15.33 480.21 -50.76 510.22 -94.47 538.65 -143.52 567.32 -194.35 594.1 -242.77 618.69 -284.43 643.32 -315.97 665.68 -333.88 685.57 -335.96 705.45 -322.72 722.39 -294.82 736.48 -255.37 750.62 -208.45 762 -157.87 770.82 -108.08 779.89 -63.07 786.71 -25.94 791.7 1.04 799.87 17.84 816.39 -17.17 828.93 -57.55 841.43 -88.97 857.22 -119 877.24 -145.23 902.05 -167.6 931.94 -182.71 967.19 -189.81 1006.79 -189.76 1050.88 -181.31 1098.43 -165.25 1146.93 -142.67 1195.67 -114.21 1242.29 -81.36 1283.89 -44.66 1318.84 -5.8 1344.63 33.87 1359.96 74.71 1363.4 114.74 1354.28 153.23 1334.76 191.19 1305.07 226.94 1267.72 260.28 1228.17 292.53 1188.5 322.46 1153.16 350.21 1127.82 377.03 1114.27 402.09 1115.09 425.67 1131.95 448.73 1163.24 470.75 1206.57 491.92 1258.17 512.94 1312.54 533.38 1363.66 553.26Q1363.68 553.27 1363.68 553.27" opacity="0.77"></path><path d="M1299.68 441.36C1351.52 466.67 1371.75 505.41 1338.33 518.82 1301.91 526.92 1258.1 532.68 1210.37 536.19 1161.88 539.81 1115.87 541.39 1075.07 541.23 1006.16 542.14 1066.52 567.35 1128.16 621.72 1158.67 681.93 1167.78 758.6 1156.16 844.75 1129.2 927.3 1087.99 994.81 1039.57 1032.16 1012.96 1037.35 986.04 1032.38 959.46 1017.25 932.18 994.12 905.82 963.19 880.8 926.49 855.56 888.11 831.93 849.36 810.17 813.32 788.38 784.19 768.55 763.08 750.88 752.04 733.21 753.11 718.11 765.11 705.48 786.64 692.81 817 682.52 852.42 674.43 889.96 666.13 928.28 659.75 963.1 654.95 992 649.48 1014.47 645.01 1027.71 640.98 1031.15 628.15 1010.74 611.16 956.06 583.63 880.26 540.78 794.52 480.93 712.46 404.08 643.15 318.85 589.24 231.47 552.7 156.91 529.75 104.39 517.09 176.64 506.12 232.41 500.46 270.16 496.45 305.54 490.45 335.14 482.26 359.14 468.91 328.41 430.46 275.68 405.18 230.5 387.51 183.97 367.8 140.31 346.19 101.83 324.58 73.18 301.09 56.48 275.9 51.91 250.76 60.7 224.02 81.76 195.97 113.11 168.23 152.78 139.51 197.8 110.28 293.39 54.72 378.03 1.6 437.28 -42.76 464.95 -74.29 464.31 -88.49 445.55 -80.92 412.08 -57.94 380.73 -17.79 359.64 31.14 345.35 81.63 377.13 58.86 398.05 14.05 413.81 -24.81 430.84 -68.06 448.64 -113.21 466.97 -157.57 485.55 -198.19 504.03 -232.04 522.64 -257.08 540.87 -270.87 558.54 -271.96 576.22 -260.92 592.91 -238.03 608.73 -205.4 624.67 -165.86 640.01 -121.92 655.01 -76.72 670.54 -33.19 686.25 6.17 702.55 39.28 720.01 64.39 738.76 80.87 759.29 88.63 805.71 77.2 862.87 41.38 932.15 -4.35 1007.72 -53.7 1089.82 -88.45 1169.61 -102.34 1234.71 -98.05 1277.26 -71.99 1286.41 -30.22 1263.96 23.37 1211.03 83.01 1141.35 142.64 1109.28 173.43 1081.11 203.23 1059.73 231.69 1048.64 260.24 1048.29 287.22 1059.68 312.44 1083.19 337.62 1117.04 361.02 1159 382.54 1206.15 404.03 1254.47 423.67 1299.66 441.35Q1299.68 441.36 1299.68 441.36" opacity="0.27"></path><path d="M1235.68 291.41C1296.24 322.34 1316.74 346.85 1294.45 365.95 1237.54 386.13 1158.19 403.14 1074.6 419.67 1000.99 441.03 948.74 466.67 921.55 500.07 920.27 542.95 937.01 596.8 962.49 661.4 995.61 731.5 1023.07 804.87 1040.03 873.32 1050.17 944.6 1004.35 920.99 961.75 831.45 930.44 767.4 898.47 714.85 867.54 688.04 836.61 697.86 808.19 737.55 781.17 795.36 752.51 862.04 722.12 917.86 687.23 951.65 646.8 961.45 597.87 942.04 539.06 898.83 474.44 838.15 402.58 767.94 328.92 696.93 262.9 627.89 209.5 567.33 178.57 516.91 173.56 474.9 198.07 441.41 249.01 413.6 309.93 390.82 371.68 369.2 416.65 346.07 427.01 324.2 400.24 298.32 339.68 267.39 258.53 236.46 183.41 201.96 133.75 165.5 117.21 130.3 140.8 95.65 196.66 64.84 273.11 39.05 355.92 21.61 431.38 15.95 492.05 18.69 532.24 34.85 553.14 63.35 551.3 110.6 511.9 162.7 501.97 126.07 499.39 69.61 506.27 -3.79 522.08 -82.41 538.9 -152.15 563.06 -198.12 593.98 -207.96 624.91 -181.15 661.14 -122.34 702.65 -46.36 745.17 31.14 794.55 96.7 850.73 140.86 908.19 158.46 971.25 152.64 1036.28 130.35 1095.77 94.1 1148.49 57.4 1186.71 27.83 1206.35 3.77 1202.84 -5.68 1174.38 -0.88 1131.12 13.37 1076.04 38.67 1022.26 70.9 989.07 107.97 983.07 147.22 1011.54 185.36 1073.13 224.59 1154.51 260.48 1235.66 291.4Q1235.68 291.41 1235.68 291.41" opacity="0.23"></path><path d="M1171.68 241.3C1225.56 267.81 1250.52 294.97 1243.68 323.16 1209.17 352.35 1151.88 384.37 1082.78 420.41 1010.99 459.43 946.1 504.38 894.48 555.47 858.88 609.31 839.57 667.74 833.38 727.63 840.03 783.41 852.08 833.17 864.51 870.89 880.27 893.21 890.77 896.23 894.07 877.74 896.46 843.46 890.97 793.98 877.89 736.7 864.15 685.37 843.88 644.92 817.37 624.04 790.86 630.21 759.37 658.67 723.12 702.51 686.19 757.44 643.46 809.88 595.13 851.37 545.89 880.42 491.73 889.34 435.11 878.62 381.83 851.72 331.72 810.38 290.32 760.23 261.77 703.58 249.64 645.82 257.64 590.77 281.66 536.83 322.77 488.21 375.13 445.46 424.8 405.1 467 369.39 491.28 337.57 487.89 306.65 457.56 278.02 403.68 251.52 334.58 225.01 268.24 201.87 217.61 182.8 187.7 164.62 186.93 152.1 213.35 146.52 261.29 143.33 324.27 148.29 392.72 161.38 461.15 175.57 522.03 195.27 571.73 217.17 610.05 232.57 636.7 242.48 654.45 241.78 663.6 224.9 669.26 192.22 675.05 143.73 677.77 82.81 684.39 15.29 696.8 -49.86 708.74 -103.93 727.6 -137.78 754.11 -143.96 780.62 -123.08 813.52 -77.27 851.57 -15.7 889.15 51.8 930.76 116.37 973.98 170.09 1014.13 208.01 1052.13 228.76 1083.85 234.05 1106.95 223.93 1118.37 205.61 1114.8 184.57 1099.84 159.43 1070.4 139.05 1029.57 126.07 969.12 115.19 921.93 139.47 969.99 168.38 1030.85 190.18 1102.56 214.78 1171.66 241.29Q1171.68 241.3 1171.68 241.3" opacity="0.23"></path><path d="M1107.68 337.09C1154.15 359.18 1180.84 385.97 1185.47 416.93 1170.23 448.11 1135.79 483.74 1087.79 523.19 1031.24 562.65 971.97 605.26 915.53 649.3 864.12 691.07 821.29 731.34 787.8 766.96 754.9 805.08 727.9 809.6 721.28 770.51 718.72 733.37 712.79 689.34 702.12 643.56 691.82 605.12 675.92 575.66 653.83 560.04 631.74 563.29 604.5 582.07 573.13 612.65 542.15 653.81 507.89 696.92 472.16 736.5 438.57 772.38 406.03 797.27 377.41 809.62 354.66 811.83 339.67 801.51 335.25 780.99 339.78 752.59 356.43 717.92 384.83 680.15 418.26 639.13 457.72 598.24 498.08 559.55 529.89 520.3 551.76 484.41 558.47 452.87 545.32 421.37 514.15 394.24 467.68 372.15 410.59 350.06 354.41 334.05 307.04 323.88 262.08 311.61 291.33 313.08 354 322.32 406.96 326.04 462.48 328.99 516.25 328.44 568.14 320.01 614.33 304.13 654.02 278.93 689.1 243.57 718.61 198.87 743.85 146.8 766.13 91.04 786.58 35.36 806.61 -14.33 825.81 -53.43 846.19 -76.7 868.28 -79.96 890.37 -64.34 913.13 -30.41 935.6 16.55 957.23 70.85 976.96 127.46 992.97 180.79 1006.01 227.4 1012.89 264.56 1011.87 291.31 1006.22 307.05 991.74 313.9 968.82 314.4 944 307.74 914.67 299.19 884.71 291.47 854.95 278.36 874.26 275.18 934.02 287.94 989.91 298.64 1050.57 314.99 1107.66 337.08Q1107.68 337.09 1107.68 337.09" opacity="0.45"></path><path d="M1043.68 490.71C1082.04 508.39 1107.84 529.33 1119.59 552.8 1118.84 575.99 1104.31 601.13 1078.42 627.04 1002.08 674.86 910.29 716.73 825.93 738.82 751.62 740.47 695.43 710.95 653.45 651.94 635.27 620 618.29 586.1 601.68 553.25 585.61 526.97 568.89 507.08 551.21 496.04 533.54 497.11 515.76 507.99 498.5 526.87 481.78 554.09 466.6 584.61 454.15 615.39 434.88 678.28 435.91 717.63 463.89 727.56 501.92 718.51 556.22 687.1 606.65 645.96 619.6 623.12 624.06 600.21 617.99 578.44 599.42 556.32 570.04 536.06 531.68 518.39 486.49 500.71 441.43 486.46 400.78 475.26 364.83 463.69 339.29 454.45 325.5 446.67 328.66 426.56 374.69 402.8 443.1 365.52 524.74 309.26 603.25 232.42 668.05 143.63 699.54 99.89 727.57 59.32 752 25.27 776.12 -0.42 797.15 -14.88 814.83 -15.95 832.5 -4.91 845.98 18.55 855.19 51.65 864.09 91.32 868.21 135.27 867.36 180.17 863.81 265.09 840.46 332.1 805.16 376.78 783.06 401.01 774.52 414.3 797.26 427.74 824 432.46 859.6 439.47 902.36 449.61 949.82 459.46 998.47 473.03 1043.66 490.7Q1043.68 490.71 1043.68 490.71" opacity="0.37"></path><path d="M979.68 560.93C1033.56 587.44 1055.51 611.75 1045.94 630.17 1012.71 645.01 960.09 647.99 901.07 635.01 837.37 614.76 778.5 578.38 730.01 530.97 683.03 489.41 645.39 452.92 618.88 432.04 592.37 438.21 579.5 462.97 580.54 497.35 583.09 541.87 600.59 579.62 629.54 603.86 666.07 624.83 665.9 592.93 595.68 555.77 526.58 529.26 464.52 500.05 421.98 467.23 396.22 431.14 397.15 386.32 418.61 332.33 453.55 273.35 497.32 207.48 540.17 143.53 585.61 89.71 624.19 54.21 650.7 48.04 677.22 68.92 689.15 116.16 689.64 177.15 692.74 243.99 690.34 308.48 690.14 363.48 703.42 411.21 730.61 449.59 775.79 480.69 837.75 508.22 910.56 534.42 979.66 560.92Q979.68 560.93 979.68 560.93" opacity="0.08"></path><path d="M915.68 483.19C982.15 518.53 985.3 517.85 945.79 483.62 884.31 450.27 820.06 401.41 784.72 368.04 749.37 382.23 749.62 418.52 764.77 447.51 757.96 482.06 726.15 485.28 659.68 449.94 566.49 414.59 500.52 347.37 481.83 266.49 484.23 191.17 515.49 126.23 550.84 112.04 586.18 145.41 618.93 222.92 662.85 302.59 727.86 383.16 822.48 447.83 915.66 483.18Q915.68 483.19 915.68 483.19" opacity="0.41"></path></g></svg>