<svg id="visual" viewBox="0 0 2560 1440" width="2560" height="1440" xmlns="http://www.w3.org/2000/svg" xmlns:xlink="http://www.w3.org/1999/xlink" version="1.1"><rect x="0" y="0" width="2560" height="1440" fill="#021625"></rect><defs><linearGradient id="grad1_0" x1="43.8%" y1="100%" x2="100%" y2="0%"><stop offset="14.444444444444446%" stop-color="#6288ec" stop-opacity="1"></stop><stop offset="85.55555555555554%" stop-color="#6288ec" stop-opacity="1"></stop></linearGradient></defs><defs><linearGradient id="grad1_1" x1="43.8%" y1="100%" x2="100%" y2="0%"><stop offset="14.444444444444446%" stop-color="#6288ec" stop-opacity="1"></stop><stop offset="85.55555555555554%" stop-color="#396bb7" stop-opacity="1"></stop></linearGradient></defs><defs><linearGradient id="grad1_2" x1="43.8%" y1="100%" x2="100%" y2="0%"><stop offset="14.444444444444446%" stop-color="#194e83" stop-opacity="1"></stop><stop offset="85.55555555555554%" stop-color="#396bb7" stop-opacity="1"></stop></linearGradient></defs><defs><linearGradient id="grad1_3" x1="43.8%" y1="100%" x2="100%" y2="0%"><stop offset="14.444444444444446%" stop-color="#194e83" stop-opacity="1"></stop><stop offset="85.55555555555554%" stop-color="#053152" stop-opacity="1"></stop></linearGradient></defs><defs><linearGradient id="grad1_4" x1="43.8%" y1="100%" x2="100%" y2="0%"><stop offset="14.444444444444446%" stop-color="#021625" stop-opacity="1"></stop><stop offset="85.55555555555554%" stop-color="#053152" stop-opacity="1"></stop></linearGradient></defs><defs><linearGradient id="grad2_0" x1="0%" y1="100%" x2="56.3%" y2="0%"><stop offset="14.444444444444446%" stop-color="#6288ec" stop-opacity="1"></stop><stop offset="85.55555555555554%" stop-color="#6288ec" stop-opacity="1"></stop></linearGradient></defs><defs><linearGradient id="grad2_1" x1="0%" y1="100%" x2="56.3%" y2="0%"><stop offset="14.444444444444446%" stop-color="#396bb7" stop-opacity="1"></stop><stop offset="85.55555555555554%" stop-color="#6288ec" stop-opacity="1"></stop></linearGradient></defs><defs><linearGradient id="grad2_2" x1="0%" y1="100%" x2="56.3%" y2="0%"><stop offset="14.444444444444446%" stop-color="#396bb7" stop-opacity="1"></stop><stop offset="85.55555555555554%" stop-color="#194e83" stop-opacity="1"></stop></linearGradient></defs><defs><linearGradient id="grad2_3" x1="0%" y1="100%" x2="56.3%" y2="0%"><stop offset="14.444444444444446%" stop-color="#053152" stop-opacity="1"></stop><stop offset="85.55555555555554%" stop-color="#194e83" stop-opacity="1"></stop></linearGradient></defs><defs><linearGradient id="grad2_4" x1="0%" y1="100%" x2="56.3%" y2="0%"><stop offset="14.444444444444446%" stop-color="#053152" stop-opacity="1"></stop><stop offset="85.55555555555554%" stop-color="#021625" stop-opacity="1"></stop></linearGradient></defs><g transform="translate(2560, 1440)"><path d="M-1296 0C-1210.2 -195.4 -1124.4 -390.8 -1027.1 -593C-929.8 -795.2 -821.1 -1004.1 -648 -1122.4C-474.9 -1240.7 -237.5 -1268.3 0 -1296L0 0Z" fill="#03233b"></path><path d="M-1036.8 0C-968.2 -156.3 -899.5 -312.7 -821.7 -474.4C-743.9 -636.1 -656.9 -803.3 -518.4 -897.9C-379.9 -992.5 -190 -1014.7 0 -1036.8L0 0Z" fill="#0d3f6a"></path><path d="M-777.6 0C-726.1 -117.3 -674.6 -234.5 -616.3 -355.8C-557.9 -477.1 -492.7 -602.4 -388.8 -673.4C-284.9 -744.4 -142.5 -761 0 -777.6L0 0Z" fill="#285c9d"></path><path d="M-518.4 0C-484.1 -78.2 -449.8 -156.3 -410.8 -237.2C-371.9 -318.1 -328.4 -401.6 -259.2 -448.9C-190 -496.3 -95 -507.3 0 -518.4L0 0Z" fill="#4c7ad1"></path><path d="M-259.2 0C-242 -39.1 -224.9 -78.2 -205.4 -118.6C-186 -159 -164.2 -200.8 -129.6 -224.5C-95 -248.1 -47.5 -253.7 0 -259.2L0 0Z" fill="#6288ec"></path></g><g transform="translate(0, 0)"><path d="M1296 0C1270.8 241.7 1245.6 483.4 1122.4 648C999.1 812.6 777.9 899.9 574.5 995.1C371.1 1090.2 185.6 1193.1 0 1296L0 0Z" fill="#03233b"></path><path d="M1036.8 0C1016.6 193.4 996.5 386.8 897.9 518.4C799.3 650 622.3 719.9 459.6 796.1C296.9 872.2 148.4 954.5 0 1036.8L0 0Z" fill="#0d3f6a"></path><path d="M777.6 0C762.5 145 747.4 290.1 673.4 388.8C599.5 487.5 466.7 540 344.7 597C222.7 654.1 111.3 715.9 0 777.6L0 0Z" fill="#285c9d"></path><path d="M518.4 0C508.3 96.7 498.2 193.4 448.9 259.2C399.7 325 311.2 360 229.8 398C148.4 436.1 74.2 477.2 0 518.4L0 0Z" fill="#4c7ad1"></path><path d="M259.2 0C254.2 48.3 249.1 96.7 224.5 129.6C199.8 162.5 155.6 180 114.9 199C74.2 218 37.1 238.6 0 259.2L0 0Z" fill="#6288ec"></path></g></svg>