<svg id="visual" viewBox="0 0 2560 1440" width="2560" height="1440" xmlns="http://www.w3.org/2000/svg" xmlns:xlink="http://www.w3.org/1999/xlink" version="1.1"><rect x="0" y="0" width="2560" height="1440" fill="#001220"></rect><path d="M0 555L30.5 556.7C61 558.3 122 561.7 183 560.7C244 559.7 305 554.3 366 578.5C427 602.7 488 656.3 548.8 709.3C609.7 762.3 670.3 814.7 731.2 848.7C792 882.7 853 898.3 914 860.8C975 823.3 1036 732.7 1097 704.5C1158 676.3 1219 710.7 1280 749.8C1341 789 1402 833 1463 830C1524 827 1585 777 1646 737.5C1707 698 1768 669 1828.8 657.7C1889.7 646.3 1950.3 652.7 2011.2 645.5C2072 638.3 2133 617.7 2194 602.2C2255 586.7 2316 576.3 2377 624.8C2438 673.3 2499 780.7 2529.5 834.3L2560 888L2560 0L2529.5 0C2499 0 2438 0 2377 0C2316 0 2255 0 2194 0C2133 0 2072 0 2011.2 0C1950.3 0 1889.7 0 1828.8 0C1768 0 1707 0 1646 0C1585 0 1524 0 1463 0C1402 0 1341 0 1280 0C1219 0 1158 0 1097 0C1036 0 975 0 914 0C853 0 792 0 731.2 0C670.3 0 609.7 0 548.8 0C488 0 427 0 366 0C305 0 244 0 183 0C122 0 61 0 30.5 0L0 0Z" fill="#0bbbf1"></path><path d="M0 563L30.5 579.5C61 596 122 629 183 611C244 593 305 524 366 542.3C427 560.7 488 666.3 548.8 668.7C609.7 671 670.3 570 731.2 561.7C792 553.3 853 637.7 914 654.7C975 671.7 1036 621.3 1097 594.3C1158 567.3 1219 563.7 1280 584C1341 604.3 1402 648.7 1463 636.8C1524 625 1585 557 1646 558.8C1707 560.7 1768 632.3 1828.8 649C1889.7 665.7 1950.3 627.3 2011.2 580.2C2072 533 2133 477 2194 504.3C2255 531.7 2316 642.3 2377 643.8C2438 645.3 2499 537.7 2529.5 483.8L2560 430L2560 0L2529.5 0C2499 0 2438 0 2377 0C2316 0 2255 0 2194 0C2133 0 2072 0 2011.2 0C1950.3 0 1889.7 0 1828.8 0C1768 0 1707 0 1646 0C1585 0 1524 0 1463 0C1402 0 1341 0 1280 0C1219 0 1158 0 1097 0C1036 0 975 0 914 0C853 0 792 0 731.2 0C670.3 0 609.7 0 548.8 0C488 0 427 0 366 0C305 0 244 0 183 0C122 0 61 0 30.5 0L0 0Z" fill="#2f8cbb"></path><path d="M0 506L30.5 501C61 496 122 486 183 496.7C244 507.3 305 538.7 366 523.2C427 507.7 488 445.3 548.8 450.7C609.7 456 670.3 529 731.2 538.2C792 547.3 853 492.7 914 447C975 401.3 1036 364.7 1097 388C1158 411.3 1219 494.7 1280 502.2C1341 509.7 1402 441.3 1463 442C1524 442.7 1585 512.3 1646 531.8C1707 551.3 1768 520.7 1828.8 491.3C1889.7 462 1950.3 434 2011.2 454C2072 474 2133 542 2194 551.5C2255 561 2316 512 2377 477.2C2438 442.3 2499 421.7 2529.5 411.3L2560 401L2560 0L2529.5 0C2499 0 2438 0 2377 0C2316 0 2255 0 2194 0C2133 0 2072 0 2011.2 0C1950.3 0 1889.7 0 1828.8 0C1768 0 1707 0 1646 0C1585 0 1524 0 1463 0C1402 0 1341 0 1280 0C1219 0 1158 0 1097 0C1036 0 975 0 914 0C853 0 792 0 731.2 0C670.3 0 609.7 0 548.8 0C488 0 427 0 366 0C305 0 244 0 183 0C122 0 61 0 30.5 0L0 0Z" fill="#306085"></path><path d="M0 350L30.5 330C61 310 122 270 183 268.3C244 266.7 305 303.3 366 304C427 304.7 488 269.3 548.8 260.2C609.7 251 670.3 268 731.2 279.5C792 291 853 297 914 304.5C975 312 1036 321 1097 314.7C1158 308.3 1219 286.7 1280 303.7C1341 320.7 1402 376.3 1463 384C1524 391.7 1585 351.3 1646 343.3C1707 335.3 1768 359.7 1828.8 362.5C1889.7 365.3 1950.3 346.7 2011.2 353C2072 359.3 2133 390.7 2194 383.5C2255 376.3 2316 330.7 2377 318.8C2438 307 2499 329 2529.5 340L2560 351L2560 0L2529.5 0C2499 0 2438 0 2377 0C2316 0 2255 0 2194 0C2133 0 2072 0 2011.2 0C1950.3 0 1889.7 0 1828.8 0C1768 0 1707 0 1646 0C1585 0 1524 0 1463 0C1402 0 1341 0 1280 0C1219 0 1158 0 1097 0C1036 0 975 0 914 0C853 0 792 0 731.2 0C670.3 0 609.7 0 548.8 0C488 0 427 0 366 0C305 0 244 0 183 0C122 0 61 0 30.5 0L0 0Z" fill="#243951"></path><path d="M0 275L30.5 274.5C61 274 122 273 183 268.7C244 264.3 305 256.7 366 251C427 245.3 488 241.7 548.8 218.8C609.7 196 670.3 154 731.2 159.2C792 164.3 853 216.7 914 226.5C975 236.3 1036 203.7 1097 194.7C1158 185.7 1219 200.3 1280 218.2C1341 236 1402 257 1463 257.2C1524 257.3 1585 236.7 1646 215.2C1707 193.7 1768 171.3 1828.8 182.3C1889.7 193.3 1950.3 237.7 2011.2 231.3C2072 225 2133 168 2194 137C2255 106 2316 101 2377 103.3C2438 105.7 2499 115.3 2529.5 120.2L2560 125L2560 0L2529.5 0C2499 0 2438 0 2377 0C2316 0 2255 0 2194 0C2133 0 2072 0 2011.2 0C1950.3 0 1889.7 0 1828.8 0C1768 0 1707 0 1646 0C1585 0 1524 0 1463 0C1402 0 1341 0 1280 0C1219 0 1158 0 1097 0C1036 0 975 0 914 0C853 0 792 0 731.2 0C670.3 0 609.7 0 548.8 0C488 0 427 0 366 0C305 0 244 0 183 0C122 0 61 0 30.5 0L0 0Z" fill="#111621"></path></svg>